<svg width="30" height="30" viewBox="0 0 30 30" fill="none" xmlns="http://www.w3.org/2000/svg">
<path d="M5.30957 29H24.6916" stroke="#FF6F61" stroke-width="1.5" stroke-linecap="round" stroke-linejoin="round"/>
<path d="M28.8474 7.24419C28.6284 6.34083 28.1784 5.50991 27.5416 4.8329C26.9048 4.1559 26.103 3.65605 25.2148 3.38238C24.3267 3.10871 23.3827 3.07061 22.4754 3.27181C21.5681 3.47302 20.7286 3.90662 20.0393 4.5301C19.6631 3.49553 18.9777 2.60182 18.0762 1.97029C17.1746 1.33876 16.1006 1 15 1C13.8994 1 12.8254 1.33876 11.9238 1.97029C11.0223 2.60182 10.3369 3.49553 9.96066 4.5301C9.27138 3.90662 8.43193 3.47302 7.52462 3.27181C6.61732 3.07061 5.67331 3.10871 4.78516 3.38238C3.89702 3.65605 3.09523 4.1559 2.45841 4.8329C1.82159 5.50991 1.37161 6.34083 1.15259 7.24419C0.98148 7.94915 0.953953 8.68134 1.07165 9.39717C1.18935 10.113 1.44987 10.7978 1.83769 11.4108C2.22552 12.0238 2.73271 12.5525 3.32907 12.9654C3.92544 13.3783 4.59877 13.6669 5.30897 13.814V21.4609C5.30897 22.0321 5.53586 22.58 5.93973 22.984C6.3436 23.388 6.89137 23.6149 7.46253 23.6149H22.5375C23.1086 23.6149 23.6564 23.388 24.0603 22.984C24.4641 22.58 24.691 22.0321 24.691 21.4609V13.814C25.4012 13.6669 26.0746 13.3783 26.6709 12.9654C27.2673 12.5525 27.7745 12.0238 28.1623 11.4108C28.5501 10.7978 28.8106 10.113 28.9283 9.39717C29.046 8.68134 29.0185 7.94915 28.8474 7.24419V7.24419Z" stroke="#FF6F61" stroke-width="1.5" stroke-linecap="round" stroke-linejoin="round"/>
<path d="M5.30957 18.23H24.6916" stroke="#FF6F61" stroke-width="1.5" stroke-linecap="round" stroke-linejoin="round"/>
</svg>
