<svg width="178" height="132" viewBox="0 0 178 132" fill="none" xmlns="http://www.w3.org/2000/svg">
<path d="M12.54 112.36C10.92 112.36 9.41 112.1 8.01 111.58C6.63 111.04 5.43 110.28 4.41 109.3C3.39 108.32 2.59 107.17 2.01 105.85C1.45 104.53 1.17 103.08 1.17 101.5C1.17 99.92 1.45 98.47 2.01 97.15C2.59 95.83 3.39 94.68 4.41 93.7C5.45 92.72 6.66 91.97 8.04 91.45C9.42 90.91 10.93 90.64 12.57 90.64C14.39 90.64 16.03 90.96 17.49 91.6C18.97 92.22 20.21 93.14 21.21 94.36L18.09 97.24C17.37 96.42 16.57 95.81 15.69 95.41C14.81 94.99 13.85 94.78 12.81 94.78C11.83 94.78 10.93 94.94 10.11 95.26C9.29 95.58 8.58 96.04 7.98 96.64C7.38 97.24 6.91 97.95 6.57 98.77C6.25 99.59 6.09 100.5 6.09 101.5C6.09 102.5 6.25 103.41 6.57 104.23C6.91 105.05 7.38 105.76 7.98 106.36C8.58 106.96 9.29 107.42 10.11 107.74C10.93 108.06 11.83 108.22 12.81 108.22C13.85 108.22 14.81 108.02 15.69 107.62C16.57 107.2 17.37 106.57 18.09 105.73L21.21 108.61C20.21 109.83 18.97 110.76 17.49 111.4C16.03 112.04 14.38 112.36 12.54 112.36ZM31.2853 112.24C29.5653 112.24 28.0353 111.88 26.6953 111.16C25.3753 110.44 24.3253 109.46 23.5453 108.22C22.7853 106.96 22.4053 105.53 22.4053 103.93C22.4053 102.31 22.7853 100.88 23.5453 99.64C24.3253 98.38 25.3753 97.4 26.6953 96.7C28.0353 95.98 29.5653 95.62 31.2853 95.62C32.9853 95.62 34.5053 95.98 35.8453 96.7C37.1853 97.4 38.2353 98.37 38.9953 99.61C39.7553 100.85 40.1353 102.29 40.1353 103.93C40.1353 105.53 39.7553 106.96 38.9953 108.22C38.2353 109.46 37.1853 110.44 35.8453 111.16C34.5053 111.88 32.9853 112.24 31.2853 112.24ZM31.2853 108.4C32.0653 108.4 32.7653 108.22 33.3853 107.86C34.0053 107.5 34.4953 106.99 34.8553 106.33C35.2153 105.65 35.3953 104.85 35.3953 103.93C35.3953 102.99 35.2153 102.19 34.8553 101.53C34.4953 100.87 34.0053 100.36 33.3853 100C32.7653 99.64 32.0653 99.46 31.2853 99.46C30.5053 99.46 29.8053 99.64 29.1853 100C28.5653 100.36 28.0653 100.87 27.6853 101.53C27.3253 102.19 27.1453 102.99 27.1453 103.93C27.1453 104.85 27.3253 105.65 27.6853 106.33C28.0653 106.99 28.5653 107.5 29.1853 107.86C29.8053 108.22 30.5053 108.4 31.2853 108.4ZM50.9435 112.24C49.2235 112.24 47.6935 111.88 46.3535 111.16C45.0335 110.44 43.9835 109.46 43.2035 108.22C42.4435 106.96 42.0635 105.53 42.0635 103.93C42.0635 102.31 42.4435 100.88 43.2035 99.64C43.9835 98.38 45.0335 97.4 46.3535 96.7C47.6935 95.98 49.2235 95.62 50.9435 95.62C52.6435 95.62 54.1635 95.98 55.5035 96.7C56.8435 97.4 57.8935 98.37 58.6535 99.61C59.4135 100.85 59.7935 102.29 59.7935 103.93C59.7935 105.53 59.4135 106.96 58.6535 108.22C57.8935 109.46 56.8435 110.44 55.5035 111.16C54.1635 111.88 52.6435 112.24 50.9435 112.24ZM50.9435 108.4C51.7235 108.4 52.4235 108.22 53.0435 107.86C53.6635 107.5 54.1535 106.99 54.5135 106.33C54.8735 105.65 55.0535 104.85 55.0535 103.93C55.0535 102.99 54.8735 102.19 54.5135 101.53C54.1535 100.87 53.6635 100.36 53.0435 100C52.4235 99.64 51.7235 99.46 50.9435 99.46C50.1635 99.46 49.4635 99.64 48.8435 100C48.2235 100.36 47.7235 100.87 47.3435 101.53C46.9835 102.19 46.8035 102.99 46.8035 103.93C46.8035 104.85 46.9835 105.65 47.3435 106.33C47.7235 106.99 48.2235 107.5 48.8435 107.86C49.4635 108.22 50.1635 108.4 50.9435 108.4ZM66.7917 108.7L66.9117 103L74.4417 95.86H80.0217L72.7917 103.21L70.3617 105.19L66.7917 108.7ZM62.9217 112V89.74H67.6017V112H62.9217ZM74.9517 112L69.4917 105.22L72.4317 101.59L80.6217 112H74.9517ZM89.9564 112.36C88.2764 112.36 86.6664 112.14 85.1264 111.7C83.5864 111.24 82.3464 110.65 81.4064 109.93L83.0564 106.27C83.9564 106.91 85.0164 107.44 86.2364 107.86C87.4764 108.26 88.7264 108.46 89.9864 108.46C90.9464 108.46 91.7164 108.37 92.2964 108.19C92.8964 107.99 93.3364 107.72 93.6164 107.38C93.8964 107.04 94.0364 106.65 94.0364 106.21C94.0364 105.65 93.8164 105.21 93.3764 104.89C92.9364 104.55 92.3564 104.28 91.6364 104.08C90.9164 103.86 90.1164 103.66 89.2364 103.48C88.3764 103.28 87.5064 103.04 86.6264 102.76C85.7664 102.48 84.9764 102.12 84.2564 101.68C83.5364 101.24 82.9464 100.66 82.4864 99.94C82.0464 99.22 81.8264 98.3 81.8264 97.18C81.8264 95.98 82.1464 94.89 82.7864 93.91C83.4464 92.91 84.4264 92.12 85.7264 91.54C87.0464 90.94 88.6964 90.64 90.6764 90.64C91.9964 90.64 93.2964 90.8 94.5764 91.12C95.8564 91.42 96.9864 91.88 97.9664 92.5L96.4664 96.19C95.4864 95.63 94.5064 95.22 93.5264 94.96C92.5464 94.68 91.5864 94.54 90.6464 94.54C89.7064 94.54 88.9364 94.65 88.3364 94.87C87.7364 95.09 87.3064 95.38 87.0464 95.74C86.7864 96.08 86.6564 96.48 86.6564 96.94C86.6564 97.48 86.8764 97.92 87.3164 98.26C87.7564 98.58 88.3364 98.84 89.0564 99.04C89.7764 99.24 90.5664 99.44 91.4264 99.64C92.3064 99.84 93.1764 100.07 94.0364 100.33C94.9164 100.59 95.7164 100.94 96.4364 101.38C97.1564 101.82 97.7364 102.4 98.1764 103.12C98.6364 103.84 98.8664 104.75 98.8664 105.85C98.8664 107.03 98.5364 108.11 97.8764 109.09C97.2164 110.07 96.2264 110.86 94.9064 111.46C93.6064 112.06 91.9564 112.36 89.9564 112.36ZM122.527 95.62C123.807 95.62 124.937 95.88 125.917 96.4C126.917 96.9 127.697 97.68 128.257 98.74C128.837 99.78 129.127 101.12 129.127 102.76V112H124.447V103.48C124.447 102.18 124.177 101.22 123.637 100.6C123.097 99.98 122.337 99.67 121.357 99.67C120.677 99.67 120.067 99.83 119.527 100.15C118.987 100.45 118.567 100.91 118.267 101.53C117.967 102.15 117.817 102.94 117.817 103.9V112H113.137V103.48C113.137 102.18 112.867 101.22 112.327 100.6C111.807 99.98 111.057 99.67 110.077 99.67C109.397 99.67 108.787 99.83 108.247 100.15C107.707 100.45 107.287 100.91 106.987 101.53C106.687 102.15 106.537 102.94 106.537 103.9V112H101.857V95.86H106.327V100.27L105.487 98.98C106.047 97.88 106.837 97.05 107.857 96.49C108.897 95.91 110.077 95.62 111.397 95.62C112.877 95.62 114.167 96 115.267 96.76C116.387 97.5 117.127 98.64 117.487 100.18L115.837 99.73C116.377 98.47 117.237 97.47 118.417 96.73C119.617 95.99 120.987 95.62 122.527 95.62ZM143.222 112V108.85L142.922 108.16V102.52C142.922 101.52 142.612 100.74 141.992 100.18C141.392 99.62 140.462 99.34 139.202 99.34C138.342 99.34 137.492 99.48 136.652 99.76C135.832 100.02 135.132 100.38 134.552 100.84L132.872 97.57C133.752 96.95 134.812 96.47 136.052 96.13C137.292 95.79 138.552 95.62 139.832 95.62C142.292 95.62 144.202 96.2 145.562 97.36C146.922 98.52 147.602 100.33 147.602 102.79V112H143.222ZM138.302 112.24C137.042 112.24 135.962 112.03 135.062 111.61C134.162 111.17 133.472 110.58 132.992 109.84C132.512 109.1 132.272 108.27 132.272 107.35C132.272 106.39 132.502 105.55 132.962 104.83C133.442 104.11 134.192 103.55 135.212 103.15C136.232 102.73 137.562 102.52 139.202 102.52H143.492V105.25H139.712C138.612 105.25 137.852 105.43 137.432 105.79C137.032 106.15 136.832 106.6 136.832 107.14C136.832 107.74 137.062 108.22 137.522 108.58C138.002 108.92 138.652 109.09 139.472 109.09C140.252 109.09 140.952 108.91 141.572 108.55C142.192 108.17 142.642 107.62 142.922 106.9L143.642 109.06C143.302 110.1 142.682 110.89 141.782 111.43C140.882 111.97 139.722 112.24 138.302 112.24ZM151.838 112V95.86H156.308V100.42L155.678 99.1C156.158 97.96 156.928 97.1 157.988 96.52C159.048 95.92 160.338 95.62 161.858 95.62V99.94C161.658 99.92 161.478 99.91 161.318 99.91C161.158 99.89 160.988 99.88 160.808 99.88C159.528 99.88 158.488 100.25 157.688 100.99C156.908 101.71 156.518 102.84 156.518 104.38V112H151.838ZM171.797 112.24C169.897 112.24 168.417 111.76 167.357 110.8C166.297 109.82 165.767 108.37 165.767 106.45V92.29H170.447V106.39C170.447 107.07 170.627 107.6 170.987 107.98C171.347 108.34 171.837 108.52 172.457 108.52C173.197 108.52 173.827 108.32 174.347 107.92L175.607 111.22C175.127 111.56 174.547 111.82 173.867 112C173.207 112.16 172.517 112.24 171.797 112.24ZM163.277 99.82V96.22H174.467V99.82H163.277Z" fill="white"/>
<path d="M116.738 31.4635C116.142 28.6477 114.918 26.0577 113.186 23.9474C111.454 21.8371 109.274 20.2791 106.858 19.426C104.443 18.573 101.875 18.4542 99.4076 19.0814C96.9399 19.7086 94.6568 21.0601 92.7822 23.0035C91.7589 19.7787 89.8947 16.993 87.4428 15.0245C84.9909 13.0559 82.0699 12 79.0764 12C76.083 12 73.162 13.0559 70.7101 15.0245C68.2581 16.993 66.394 19.7787 65.3707 23.0035C63.4961 21.0601 61.213 19.7086 58.7453 19.0814C56.2777 18.4542 53.7102 18.573 51.2947 19.426C48.8792 20.2791 46.6985 21.8371 44.9665 23.9474C43.2345 26.0577 42.0107 28.6477 41.415 31.4635C40.9496 33.6609 40.8748 35.9432 41.1949 38.1745C41.515 40.4058 42.2235 42.5404 43.2783 44.4512C44.3331 46.362 45.7125 48.01 47.3345 49.2969C48.9564 50.5838 50.7877 51.4834 52.7193 51.9421V75.7778C52.7193 77.5586 53.3364 79.2664 54.4348 80.5255C55.5332 81.7847 57.023 82.4921 58.5764 82.4921H99.5764C101.13 82.4921 102.62 81.7847 103.718 80.5255C104.816 79.2664 105.434 77.5586 105.434 75.7778V51.9421C107.365 51.4834 109.196 50.5838 110.818 49.2969C112.44 48.01 113.82 46.362 114.875 44.4512C115.929 42.5404 116.638 40.4058 116.958 38.1745C117.278 35.9432 117.203 33.6609 116.738 31.4635V31.4635Z" stroke="white" stroke-width="3.5" stroke-linecap="round" stroke-linejoin="round"/>
<path d="M52.7194 65.7064H105.434" stroke="white" stroke-width="3.5" stroke-linecap="round" stroke-linejoin="round"/>
<path d="M53 123.5H105.714" stroke="white" stroke-width="3.5" stroke-linecap="round" stroke-linejoin="round"/>
</svg>
