<svg width="53" height="17" viewBox="0 0 53 17" fill="none" xmlns="http://www.w3.org/2000/svg">
<path d="M8.5 12.0023V13.1659" stroke="#FF6F61" stroke-width="0.5" stroke-linecap="round" stroke-linejoin="round"/>
<path d="M8.5 6.23041V7.31336" stroke="#FF6F61" stroke-width="0.5" stroke-linecap="round" stroke-linejoin="round"/>
<path d="M8.5 16C12.875 16 16 14.5714 16 11.3917C16 7.93548 14.125 5.63134 10.375 3.90323L11.85 2.15207C11.9249 2.03718 11.9656 1.90607 11.9678 1.77203C11.97 1.63799 11.9338 1.50579 11.8627 1.38882C11.7917 1.27186 11.6883 1.17429 11.5631 1.10601C11.438 1.03772 11.2954 1.00115 11.15 1H5.85C5.70456 1.00115 5.56203 1.03772 5.43686 1.10601C5.31169 1.17429 5.20834 1.27186 5.13727 1.38882C5.0662 1.50579 5.02995 1.63799 5.03219 1.77203C5.03442 1.90607 5.07507 2.03718 5.15 2.15207L6.625 3.91475C2.875 5.65438 1 7.95853 1 11.4147C1 14.5714 4.125 16 8.5 16Z" stroke="#FF6F61" stroke-width="0.7" stroke-linecap="round" stroke-linejoin="round"/>
<path d="M7.2502 11.4724C7.40272 11.6392 7.59468 11.7717 7.81136 11.8595C8.02804 11.9474 8.26367 11.9884 8.5002 11.9793C8.8617 12.002 9.21868 11.8946 9.49609 11.6798C9.77349 11.4649 9.94971 11.1593 9.98769 10.8272C9.94971 10.4951 9.77349 10.1895 9.49609 9.97463C9.21868 9.75978 8.8617 9.65242 8.5002 9.67514C8.13869 9.69785 7.78171 9.59049 7.5043 9.37564C7.2269 9.16079 7.05068 8.85518 7.0127 8.52306C7.04763 8.18978 7.223 7.88241 7.50113 7.667C7.77926 7.45159 8.13797 7.3453 8.5002 7.37099C8.73255 7.35789 8.96517 7.39242 9.18131 7.4721C9.39745 7.55179 9.59174 7.67464 9.7502 7.83182" stroke="#FF6F61" stroke-width="0.5" stroke-linecap="round" stroke-linejoin="round"/>
<path d="M7.2502 11.4724C7.40272 11.6392 7.59468 11.7717 7.81136 11.8595C8.02804 11.9474 8.26367 11.9884 8.5002 11.9793C8.8617 12.002 9.21868 11.8946 9.49609 11.6798C9.77349 11.4649 9.94971 11.1593 9.98769 10.8272C9.94971 10.4951 9.77349 10.1895 9.49609 9.97463C9.21868 9.75978 8.8617 9.65242 8.5002 9.67514C8.13869 9.69785 7.78171 9.59049 7.5043 9.37564C7.2269 9.16079 7.05068 8.85518 7.0127 8.52306C7.04763 8.18978 7.223 7.88241 7.50113 7.667C7.77926 7.45159 8.13797 7.3453 8.5002 7.37099C8.73255 7.35789 8.96517 7.39242 9.18131 7.4721C9.39745 7.55179 9.59174 7.67464 9.7502 7.83182" stroke="#FF6F61" stroke-width="0.5" stroke-linecap="round" stroke-linejoin="round"/>
<path d="M44.5 12.0023V13.1659" stroke="#FF6F61" stroke-width="0.5" stroke-linecap="round" stroke-linejoin="round"/>
<path d="M44.5 6.23041V7.31336" stroke="#FF6F61" stroke-width="0.5" stroke-linecap="round" stroke-linejoin="round"/>
<path d="M44.5 16C48.875 16 52 14.5714 52 11.3917C52 7.93548 50.125 5.63134 46.375 3.90323L47.85 2.15207C47.9249 2.03718 47.9656 1.90607 47.9678 1.77203C47.97 1.63799 47.9338 1.50579 47.8627 1.38882C47.7917 1.27186 47.6883 1.17429 47.5631 1.10601C47.438 1.03772 47.2954 1.00115 47.15 1H41.85C41.7046 1.00115 41.562 1.03772 41.4369 1.10601C41.3117 1.17429 41.2083 1.27186 41.1373 1.38882C41.0662 1.50579 41.03 1.63799 41.0322 1.77203C41.0344 1.90607 41.0751 2.03718 41.15 2.15207L42.625 3.91475C38.875 5.65438 37 7.95853 37 11.4147C37 14.5714 40.125 16 44.5 16Z" stroke="#FF6F61" stroke-width="0.7" stroke-linecap="round" stroke-linejoin="round"/>
<path d="M43.2502 11.4724C43.4027 11.6392 43.5947 11.7717 43.8114 11.8595C44.028 11.9474 44.2637 11.9884 44.5002 11.9793C44.8617 12.002 45.2187 11.8946 45.4961 11.6798C45.7735 11.4649 45.9497 11.1593 45.9877 10.8272C45.9497 10.4951 45.7735 10.1895 45.4961 9.97463C45.2187 9.75978 44.8617 9.65242 44.5002 9.67514C44.1387 9.69785 43.7817 9.59049 43.5043 9.37564C43.2269 9.16079 43.0507 8.85518 43.0127 8.52306C43.0476 8.18978 43.223 7.88241 43.5011 7.667C43.7793 7.45159 44.138 7.3453 44.5002 7.37099C44.7326 7.35789 44.9652 7.39242 45.1813 7.4721C45.3975 7.55179 45.5917 7.67464 45.7502 7.83182" stroke="#FF6F61" stroke-width="0.5" stroke-linecap="round" stroke-linejoin="round"/>
<path d="M43.2502 11.4724C43.4027 11.6392 43.5947 11.7717 43.8114 11.8595C44.028 11.9474 44.2637 11.9884 44.5002 11.9793C44.8617 12.002 45.2187 11.8946 45.4961 11.6798C45.7735 11.4649 45.9497 11.1593 45.9877 10.8272C45.9497 10.4951 45.7735 10.1895 45.4961 9.97463C45.2187 9.75978 44.8617 9.65242 44.5002 9.67514C44.1387 9.69785 43.7817 9.59049 43.5043 9.37564C43.2269 9.16079 43.0507 8.85518 43.0127 8.52306C43.0476 8.18978 43.223 7.88241 43.5011 7.667C43.7793 7.45159 44.138 7.3453 44.5002 7.37099C44.7326 7.35789 44.9652 7.39242 45.1813 7.4721C45.3975 7.55179 45.5917 7.67464 45.7502 7.83182" stroke="#FF6F61" stroke-width="0.5" stroke-linecap="round" stroke-linejoin="round"/>
<path d="M26.5 12.0023V13.1659" stroke="#FF6F61" stroke-width="0.5" stroke-linecap="round" stroke-linejoin="round"/>
<path d="M26.5 6.23041V7.31336" stroke="#FF6F61" stroke-width="0.5" stroke-linecap="round" stroke-linejoin="round"/>
<path d="M26.5 16C30.875 16 34 14.5714 34 11.3917C34 7.93548 32.125 5.63134 28.375 3.90323L29.85 2.15207C29.9249 2.03718 29.9656 1.90607 29.9678 1.77203C29.97 1.63799 29.9338 1.50579 29.8627 1.38882C29.7917 1.27186 29.6883 1.17429 29.5631 1.10601C29.438 1.03772 29.2954 1.00115 29.15 1H23.85C23.7046 1.00115 23.562 1.03772 23.4369 1.10601C23.3117 1.17429 23.2083 1.27186 23.1373 1.38882C23.0662 1.50579 23.03 1.63799 23.0322 1.77203C23.0344 1.90607 23.0751 2.03718 23.15 2.15207L24.625 3.91475C20.875 5.65438 19 7.95853 19 11.4147C19 14.5714 22.125 16 26.5 16Z" stroke="#FF6F61" stroke-width="0.7" stroke-linecap="round" stroke-linejoin="round"/>
<path d="M25.2502 11.4724C25.4027 11.6392 25.5947 11.7717 25.8114 11.8595C26.028 11.9474 26.2637 11.9884 26.5002 11.9793C26.8617 12.002 27.2187 11.8946 27.4961 11.6798C27.7735 11.4649 27.9497 11.1593 27.9877 10.8272C27.9497 10.4951 27.7735 10.1895 27.4961 9.97463C27.2187 9.75978 26.8617 9.65242 26.5002 9.67514C26.1387 9.69785 25.7817 9.59049 25.5043 9.37564C25.2269 9.16079 25.0507 8.85518 25.0127 8.52306C25.0476 8.18978 25.223 7.88241 25.5011 7.667C25.7793 7.45159 26.138 7.3453 26.5002 7.37099C26.7326 7.35789 26.9652 7.39242 27.1813 7.4721C27.3975 7.55179 27.5917 7.67464 27.7502 7.83182" stroke="#FF6F61" stroke-width="0.5" stroke-linecap="round" stroke-linejoin="round"/>
<path d="M25.2502 11.4724C25.4027 11.6392 25.5947 11.7717 25.8114 11.8595C26.028 11.9474 26.2637 11.9884 26.5002 11.9793C26.8617 12.002 27.2187 11.8946 27.4961 11.6798C27.7735 11.4649 27.9497 11.1593 27.9877 10.8272C27.9497 10.4951 27.7735 10.1895 27.4961 9.97463C27.2187 9.75978 26.8617 9.65242 26.5002 9.67514C26.1387 9.69785 25.7817 9.59049 25.5043 9.37564C25.2269 9.16079 25.0507 8.85518 25.0127 8.52306C25.0476 8.18978 25.223 7.88241 25.5011 7.667C25.7793 7.45159 26.138 7.3453 26.5002 7.37099C26.7326 7.35789 26.9652 7.39242 27.1813 7.4721C27.3975 7.55179 27.5917 7.67464 27.7502 7.83182" stroke="#FF6F61" stroke-width="0.5" stroke-linecap="round" stroke-linejoin="round"/>
<path d="M8.5 12.0023V13.1659" stroke="#333333" stroke-width="0.5" stroke-linecap="round" stroke-linejoin="round"/>
<path d="M8.5 6.23041V7.31336" stroke="#333333" stroke-width="0.5" stroke-linecap="round" stroke-linejoin="round"/>
<path d="M8.5 16C12.875 16 16 14.5714 16 11.3917C16 7.93548 14.125 5.63134 10.375 3.90323L11.85 2.15207C11.9249 2.03718 11.9656 1.90607 11.9678 1.77203C11.97 1.63799 11.9338 1.50579 11.8627 1.38882C11.7917 1.27186 11.6883 1.17429 11.5631 1.10601C11.438 1.03772 11.2954 1.00115 11.15 1H5.85C5.70456 1.00115 5.56203 1.03772 5.43686 1.10601C5.31169 1.17429 5.20834 1.27186 5.13727 1.38882C5.0662 1.50579 5.02995 1.63799 5.03219 1.77203C5.03442 1.90607 5.07507 2.03718 5.15 2.15207L6.625 3.91475C2.875 5.65438 1 7.95853 1 11.4147C1 14.5714 4.125 16 8.5 16Z" fill="#FF6F61" stroke="#333333" stroke-width="0.7" stroke-linecap="round" stroke-linejoin="round"/>
<path d="M7.2502 11.4724C7.40272 11.6392 7.59468 11.7717 7.81136 11.8595C8.02804 11.9474 8.26367 11.9884 8.5002 11.9793C8.8617 12.002 9.21868 11.8946 9.49609 11.6798C9.77349 11.4649 9.94971 11.1593 9.98769 10.8272C9.94971 10.4951 9.77349 10.1895 9.49609 9.97463C9.21868 9.75978 8.8617 9.65242 8.5002 9.67514C8.13869 9.69785 7.78171 9.59049 7.5043 9.37564C7.2269 9.16079 7.05068 8.85518 7.0127 8.52306C7.04763 8.18978 7.223 7.88241 7.50113 7.667C7.77926 7.45159 8.13797 7.3453 8.5002 7.37099C8.73255 7.35789 8.96517 7.39242 9.18131 7.4721C9.39745 7.55179 9.59174 7.67464 9.7502 7.83182" fill="#FF6F61"/>
<path d="M7.2502 11.4724C7.40272 11.6392 7.59468 11.7717 7.81136 11.8595C8.02804 11.9474 8.26367 11.9884 8.5002 11.9793C8.8617 12.002 9.21868 11.8946 9.49609 11.6798C9.77349 11.4649 9.94971 11.1593 9.98769 10.8272C9.94971 10.4951 9.77349 10.1895 9.49609 9.97463C9.21868 9.75978 8.8617 9.65242 8.5002 9.67514C8.13869 9.69785 7.78171 9.59049 7.5043 9.37564C7.2269 9.16079 7.05068 8.85518 7.0127 8.52306C7.04763 8.18978 7.223 7.88241 7.50113 7.667C7.77926 7.45159 8.13797 7.3453 8.5002 7.37099C8.73255 7.35789 8.96517 7.39242 9.18131 7.4721C9.39745 7.55179 9.59174 7.67464 9.7502 7.83182" stroke="#333333" stroke-width="0.5" stroke-linecap="round" stroke-linejoin="round"/>
<path d="M7.2502 11.4724C7.40272 11.6392 7.59468 11.7717 7.81136 11.8595C8.02804 11.9474 8.26367 11.9884 8.5002 11.9793C8.8617 12.002 9.21868 11.8946 9.49609 11.6798C9.77349 11.4649 9.94971 11.1593 9.98769 10.8272C9.94971 10.4951 9.77349 10.1895 9.49609 9.97463C9.21868 9.75978 8.8617 9.65242 8.5002 9.67514C8.13869 9.69785 7.78171 9.59049 7.5043 9.37564C7.2269 9.16079 7.05068 8.85518 7.0127 8.52306C7.04763 8.18978 7.223 7.88241 7.50113 7.667C7.77926 7.45159 8.13797 7.3453 8.5002 7.37099C8.73255 7.35789 8.96517 7.39242 9.18131 7.4721C9.39745 7.55179 9.59174 7.67464 9.7502 7.83182" fill="#FF6F61"/>
<path d="M7.2502 11.4724C7.40272 11.6392 7.59468 11.7717 7.81136 11.8595C8.02804 11.9474 8.26367 11.9884 8.5002 11.9793C8.8617 12.002 9.21868 11.8946 9.49609 11.6798C9.77349 11.4649 9.94971 11.1593 9.98769 10.8272C9.94971 10.4951 9.77349 10.1895 9.49609 9.97463C9.21868 9.75978 8.8617 9.65242 8.5002 9.67514C8.13869 9.69785 7.78171 9.59049 7.5043 9.37564C7.2269 9.16079 7.05068 8.85518 7.0127 8.52306C7.04763 8.18978 7.223 7.88241 7.50113 7.667C7.77926 7.45159 8.13797 7.3453 8.5002 7.37099C8.73255 7.35789 8.96517 7.39242 9.18131 7.4721C9.39745 7.55179 9.59174 7.67464 9.7502 7.83182" stroke="#333333" stroke-width="0.5" stroke-linecap="round" stroke-linejoin="round"/>
<path d="M44.5 12.0023V13.1659" stroke="#FF6F61" stroke-width="0.5" stroke-linecap="round" stroke-linejoin="round"/>
<path d="M44.5 6.23041V7.31336" stroke="#FF6F61" stroke-width="0.5" stroke-linecap="round" stroke-linejoin="round"/>
<path d="M44.5 16C48.875 16 52 14.5714 52 11.3917C52 7.93548 50.125 5.63134 46.375 3.90323L47.85 2.15207C47.9249 2.03718 47.9656 1.90607 47.9678 1.77203C47.97 1.63799 47.9338 1.50579 47.8627 1.38882C47.7917 1.27186 47.6883 1.17429 47.5631 1.10601C47.438 1.03772 47.2954 1.00115 47.15 1H41.85C41.7046 1.00115 41.562 1.03772 41.4369 1.10601C41.3117 1.17429 41.2083 1.27186 41.1373 1.38882C41.0662 1.50579 41.03 1.63799 41.0322 1.77203C41.0344 1.90607 41.0751 2.03718 41.15 2.15207L42.625 3.91475C38.875 5.65438 37 7.95853 37 11.4147C37 14.5714 40.125 16 44.5 16Z" stroke="#FF6F61" stroke-width="0.7" stroke-linecap="round" stroke-linejoin="round"/>
<path d="M43.2502 11.4724C43.4027 11.6392 43.5947 11.7717 43.8114 11.8595C44.028 11.9474 44.2637 11.9884 44.5002 11.9793C44.8617 12.002 45.2187 11.8946 45.4961 11.6798C45.7735 11.4649 45.9497 11.1593 45.9877 10.8272C45.9497 10.4951 45.7735 10.1895 45.4961 9.97463C45.2187 9.75978 44.8617 9.65242 44.5002 9.67514C44.1387 9.69785 43.7817 9.59049 43.5043 9.37564C43.2269 9.16079 43.0507 8.85518 43.0127 8.52306C43.0476 8.18978 43.223 7.88241 43.5011 7.667C43.7793 7.45159 44.138 7.3453 44.5002 7.37099C44.7326 7.35789 44.9652 7.39242 45.1813 7.4721C45.3975 7.55179 45.5917 7.67464 45.7502 7.83182" stroke="#FF6F61" stroke-width="0.5" stroke-linecap="round" stroke-linejoin="round"/>
<path d="M43.2502 11.4724C43.4027 11.6392 43.5947 11.7717 43.8114 11.8595C44.028 11.9474 44.2637 11.9884 44.5002 11.9793C44.8617 12.002 45.2187 11.8946 45.4961 11.6798C45.7735 11.4649 45.9497 11.1593 45.9877 10.8272C45.9497 10.4951 45.7735 10.1895 45.4961 9.97463C45.2187 9.75978 44.8617 9.65242 44.5002 9.67514C44.1387 9.69785 43.7817 9.59049 43.5043 9.37564C43.2269 9.16079 43.0507 8.85518 43.0127 8.52306C43.0476 8.18978 43.223 7.88241 43.5011 7.667C43.7793 7.45159 44.138 7.3453 44.5002 7.37099C44.7326 7.35789 44.9652 7.39242 45.1813 7.4721C45.3975 7.55179 45.5917 7.67464 45.7502 7.83182" stroke="#FF6F61" stroke-width="0.5" stroke-linecap="round" stroke-linejoin="round"/>
<path d="M26.5 12.0023V13.1659" stroke="#333333" stroke-width="0.5" stroke-linecap="round" stroke-linejoin="round"/>
<path d="M26.5 6.23041V7.31336" stroke="#333333" stroke-width="0.5" stroke-linecap="round" stroke-linejoin="round"/>
<path d="M26.5 16C30.875 16 34 14.5714 34 11.3917C34 7.93548 32.125 5.63134 28.375 3.90323L29.85 2.15207C29.9249 2.03718 29.9656 1.90607 29.9678 1.77203C29.97 1.63799 29.9338 1.50579 29.8627 1.38882C29.7917 1.27186 29.6883 1.17429 29.5631 1.10601C29.438 1.03772 29.2954 1.00115 29.15 1H23.85C23.7046 1.00115 23.562 1.03772 23.4369 1.10601C23.3117 1.17429 23.2083 1.27186 23.1373 1.38882C23.0662 1.50579 23.03 1.63799 23.0322 1.77203C23.0344 1.90607 23.0751 2.03718 23.15 2.15207L24.625 3.91475C20.875 5.65438 19 7.95853 19 11.4147C19 14.5714 22.125 16 26.5 16Z" fill="#FF6F61" stroke="#333333" stroke-width="0.7" stroke-linecap="round" stroke-linejoin="round"/>
<path d="M25.2502 11.4724C25.4027 11.6392 25.5947 11.7717 25.8114 11.8595C26.028 11.9474 26.2637 11.9884 26.5002 11.9793C26.8617 12.002 27.2187 11.8946 27.4961 11.6798C27.7735 11.4649 27.9497 11.1593 27.9877 10.8272C27.9497 10.4951 27.7735 10.1895 27.4961 9.97463C27.2187 9.75978 26.8617 9.65242 26.5002 9.67514C26.1387 9.69785 25.7817 9.59049 25.5043 9.37564C25.2269 9.16079 25.0507 8.85518 25.0127 8.52306C25.0476 8.18978 25.223 7.88241 25.5011 7.667C25.7793 7.45159 26.138 7.3453 26.5002 7.37099C26.7326 7.35789 26.9652 7.39242 27.1813 7.4721C27.3975 7.55179 27.5917 7.67464 27.7502 7.83182" fill="#FF6F61"/>
<path d="M25.2502 11.4724C25.4027 11.6392 25.5947 11.7717 25.8114 11.8595C26.028 11.9474 26.2637 11.9884 26.5002 11.9793C26.8617 12.002 27.2187 11.8946 27.4961 11.6798C27.7735 11.4649 27.9497 11.1593 27.9877 10.8272C27.9497 10.4951 27.7735 10.1895 27.4961 9.97463C27.2187 9.75978 26.8617 9.65242 26.5002 9.67514C26.1387 9.69785 25.7817 9.59049 25.5043 9.37564C25.2269 9.16079 25.0507 8.85518 25.0127 8.52306C25.0476 8.18978 25.223 7.88241 25.5011 7.667C25.7793 7.45159 26.138 7.3453 26.5002 7.37099C26.7326 7.35789 26.9652 7.39242 27.1813 7.4721C27.3975 7.55179 27.5917 7.67464 27.7502 7.83182" stroke="#333333" stroke-width="0.5" stroke-linecap="round" stroke-linejoin="round"/>
<path d="M25.2502 11.4724C25.4027 11.6392 25.5947 11.7717 25.8114 11.8595C26.028 11.9474 26.2637 11.9884 26.5002 11.9793C26.8617 12.002 27.2187 11.8946 27.4961 11.6798C27.7735 11.4649 27.9497 11.1593 27.9877 10.8272C27.9497 10.4951 27.7735 10.1895 27.4961 9.97463C27.2187 9.75978 26.8617 9.65242 26.5002 9.67514C26.1387 9.69785 25.7817 9.59049 25.5043 9.37564C25.2269 9.16079 25.0507 8.85518 25.0127 8.52306C25.0476 8.18978 25.223 7.88241 25.5011 7.667C25.7793 7.45159 26.138 7.3453 26.5002 7.37099C26.7326 7.35789 26.9652 7.39242 27.1813 7.4721C27.3975 7.55179 27.5917 7.67464 27.7502 7.83182" fill="#FF6F61"/>
<path d="M25.2502 11.4724C25.4027 11.6392 25.5947 11.7717 25.8114 11.8595C26.028 11.9474 26.2637 11.9884 26.5002 11.9793C26.8617 12.002 27.2187 11.8946 27.4961 11.6798C27.7735 11.4649 27.9497 11.1593 27.9877 10.8272C27.9497 10.4951 27.7735 10.1895 27.4961 9.97463C27.2187 9.75978 26.8617 9.65242 26.5002 9.67514C26.1387 9.69785 25.7817 9.59049 25.5043 9.37564C25.2269 9.16079 25.0507 8.85518 25.0127 8.52306C25.0476 8.18978 25.223 7.88241 25.5011 7.667C25.7793 7.45159 26.138 7.3453 26.5002 7.37099C26.7326 7.35789 26.9652 7.39242 27.1813 7.4721C27.3975 7.55179 27.5917 7.67464 27.7502 7.83182" stroke="#333333" stroke-width="0.5" stroke-linecap="round" stroke-linejoin="round"/>
</svg>
