<svg width="9" height="9" viewBox="0 0 9 9" fill="none" xmlns="http://www.w3.org/2000/svg">
<path d="M1 2.61539H8" stroke="white" stroke-width="0.7" stroke-linecap="round" stroke-linejoin="round"/>
<path d="M1.875 2.61539H7.125V7.46154C7.125 7.60435 7.06354 7.74131 6.95415 7.84229C6.84475 7.94327 6.69638 8 6.54167 8H2.45833C2.30362 8 2.15525 7.94327 2.04585 7.84229C1.93646 7.74131 1.875 7.60435 1.875 7.46154V2.61539Z" stroke="white" stroke-width="0.7" stroke-linecap="round" stroke-linejoin="round"/>
<path d="M3.04175 2.61538V2.34615C3.04175 1.98913 3.19539 1.64673 3.46888 1.39428C3.74237 1.14183 4.11331 1 4.50008 1C4.88686 1 5.25779 1.14183 5.53128 1.39428C5.80477 1.64673 5.95841 1.98913 5.95841 2.34615V2.61538" stroke="white" stroke-width="0.7" stroke-linecap="round" stroke-linejoin="round"/>
<path d="M3.625 3.69231V6.65385" stroke="white" stroke-width="0.7" stroke-linecap="round" stroke-linejoin="round"/>
<path d="M5.375 3.69231V6.65385" stroke="white" stroke-width="0.7" stroke-linecap="round" stroke-linejoin="round"/>
</svg>
